<svg id="visual" viewBox="0 0 960 540" width="960" height="540" xmlns="http://www.w3.org/2000/svg" xmlns:xlink="http://www.w3.org/1999/xlink" version="1.1"><rect x="0" y="0" width="960" height="540" fill="#ffffff"></rect><defs><linearGradient id="grad1_0" x1="43.8%" y1="0%" x2="100%" y2="100%"><stop offset="14.444444444444446%" stop-color="#f47878" stop-opacity="1"></stop><stop offset="85.55555555555554%" stop-color="#f47878" stop-opacity="1"></stop></linearGradient></defs><defs><linearGradient id="grad1_1" x1="43.8%" y1="0%" x2="100%" y2="100%"><stop offset="14.444444444444446%" stop-color="#f47878" stop-opacity="1"></stop><stop offset="85.55555555555554%" stop-color="#fb9b98" stop-opacity="1"></stop></linearGradient></defs><defs><linearGradient id="grad1_2" x1="43.8%" y1="0%" x2="100%" y2="100%"><stop offset="14.444444444444446%" stop-color="#ffbdb9" stop-opacity="1"></stop><stop offset="85.55555555555554%" stop-color="#fb9b98" stop-opacity="1"></stop></linearGradient></defs><defs><linearGradient id="grad1_3" x1="43.8%" y1="0%" x2="100%" y2="100%"><stop offset="14.444444444444446%" stop-color="#ffbdb9" stop-opacity="1"></stop><stop offset="85.55555555555554%" stop-color="#ffdedc" stop-opacity="1"></stop></linearGradient></defs><defs><linearGradient id="grad1_4" x1="43.8%" y1="0%" x2="100%" y2="100%"><stop offset="14.444444444444446%" stop-color="#ffffff" stop-opacity="1"></stop><stop offset="85.55555555555554%" stop-color="#ffdedc" stop-opacity="1"></stop></linearGradient></defs><defs><linearGradient id="grad2_0" x1="0%" y1="0%" x2="56.3%" y2="100%"><stop offset="14.444444444444446%" stop-color="#f47878" stop-opacity="1"></stop><stop offset="85.55555555555554%" stop-color="#f47878" stop-opacity="1"></stop></linearGradient></defs><defs><linearGradient id="grad2_1" x1="0%" y1="0%" x2="56.3%" y2="100%"><stop offset="14.444444444444446%" stop-color="#fb9b98" stop-opacity="1"></stop><stop offset="85.55555555555554%" stop-color="#f47878" stop-opacity="1"></stop></linearGradient></defs><defs><linearGradient id="grad2_2" x1="0%" y1="0%" x2="56.3%" y2="100%"><stop offset="14.444444444444446%" stop-color="#fb9b98" stop-opacity="1"></stop><stop offset="85.55555555555554%" stop-color="#ffbdb9" stop-opacity="1"></stop></linearGradient></defs><defs><linearGradient id="grad2_3" x1="0%" y1="0%" x2="56.3%" y2="100%"><stop offset="14.444444444444446%" stop-color="#ffdedc" stop-opacity="1"></stop><stop offset="85.55555555555554%" stop-color="#ffbdb9" stop-opacity="1"></stop></linearGradient></defs><defs><linearGradient id="grad2_4" x1="0%" y1="0%" x2="56.3%" y2="100%"><stop offset="14.444444444444446%" stop-color="#ffdedc" stop-opacity="1"></stop><stop offset="85.55555555555554%" stop-color="#ffffff" stop-opacity="1"></stop></linearGradient></defs><g transform="translate(960, 0)"><path d="M0 270C-24.3 268.3 -48.6 266.6 -68.3 255C-88 243.4 -103.1 221.9 -120 207.8C-136.9 193.8 -155.6 187.2 -177.5 177.5C-199.4 167.8 -224.4 154.9 -233.8 135C-243.3 115.1 -237.1 88.1 -240.5 64.4C-243.9 40.8 -257 20.4 -270 0L0 0Z" fill="#ffeeed"></path><path d="M0 216C-19.5 214.6 -38.9 213.3 -54.7 204C-70.4 194.7 -82.5 177.5 -96 166.3C-109.5 155 -124.5 149.8 -142 142C-159.5 134.2 -179.5 123.9 -187.1 108C-194.6 92.1 -189.7 70.5 -192.4 51.6C-195.2 32.6 -205.6 16.3 -216 0L0 0Z" fill="#ffcdca"></path><path d="M0 162C-14.6 161 -29.2 160 -41 153C-52.8 146 -61.9 133.1 -72 124.7C-82.1 116.3 -93.4 112.3 -106.5 106.5C-119.6 100.7 -134.6 92.9 -140.3 81C-146 69.1 -142.3 52.9 -144.3 38.7C-146.4 24.5 -154.2 12.2 -162 0L0 0Z" fill="#feaca8"></path><path d="M0 108C-9.7 107.3 -19.5 106.6 -27.3 102C-35.2 97.4 -41.2 88.8 -48 83.1C-54.8 77.5 -62.2 74.9 -71 71C-79.7 67.1 -89.8 62 -93.5 54C-97.3 46 -94.8 35.2 -96.2 25.8C-97.6 16.3 -102.8 8.2 -108 0L0 0Z" fill="#f88a88"></path><path d="M0 54C-4.9 53.7 -9.7 53.3 -13.7 51C-17.6 48.7 -20.6 44.4 -24 41.6C-27.4 38.8 -31.1 37.4 -35.5 35.5C-39.9 33.6 -44.9 31 -46.8 27C-48.7 23 -47.4 17.6 -48.1 12.9C-48.8 8.2 -51.4 4.1 -54 0L0 0Z" fill="#f47878"></path></g><g transform="translate(0, 540)"><path d="M0 -270C21.7 -256.7 43.4 -243.4 61.9 -230.9C80.4 -218.3 95.7 -206.6 115.5 -200.1C135.3 -193.5 159.7 -192.2 183.1 -183.1C206.6 -174.1 229.2 -157.4 233.8 -135C238.4 -112.6 224.9 -84.5 228 -61.1C231 -37.6 250.5 -18.8 270 0L0 0Z" fill="#ffeeed"></path><path d="M0 -216C17.3 -205.4 34.7 -194.7 49.5 -184.7C64.3 -174.7 76.5 -165.3 92.4 -160C108.3 -154.8 127.7 -153.7 146.5 -146.5C165.3 -139.3 183.4 -125.9 187.1 -108C190.7 -90.1 180 -67.6 182.4 -48.9C184.8 -30.1 200.4 -15.1 216 0L0 0Z" fill="#ffcdca"></path><path d="M0 -162C13 -154 26 -146 37.1 -138.5C48.2 -131 57.4 -124 69.3 -120C81.2 -116.1 95.8 -115.3 109.9 -109.9C124 -104.5 137.5 -94.4 140.3 -81C143 -67.6 135 -50.7 136.8 -36.6C138.6 -22.6 150.3 -11.3 162 0L0 0Z" fill="#feaca8"></path><path d="M0 -108C8.7 -102.7 17.3 -97.4 24.7 -92.3C32.1 -87.3 38.3 -82.6 46.2 -80C54.1 -77.4 63.9 -76.9 73.3 -73.3C82.6 -69.6 91.7 -63 93.5 -54C95.4 -45 90 -33.8 91.2 -24.4C92.4 -15.1 100.2 -7.5 108 0L0 0Z" fill="#f88a88"></path><path d="M0 -54C4.3 -51.3 8.7 -48.7 12.4 -46.2C16.1 -43.7 19.1 -41.3 23.1 -40C27.1 -38.7 31.9 -38.4 36.6 -36.6C41.3 -34.8 45.8 -31.5 46.8 -27C47.7 -22.5 45 -16.9 45.6 -12.2C46.2 -7.5 50.1 -3.8 54 0L0 0Z" fill="#f47878"></path></g></svg>